<?xml version="1.0" standalone="no"?>
<!DOCTYPE svg PUBLIC "-//W3C//DTD SVG 20010904//EN"
 "http://www.w3.org/TR/2001/REC-SVG-20010904/DTD/svg10.dtd">
<svg version="1.0" xmlns="http://www.w3.org/2000/svg"
 width="1055.000000pt" height="512.000000pt" viewBox="0 0 1055.000000 512.000000"
 preserveAspectRatio="xMidYMid meet">

<g transform="translate(0.000000,512.000000) scale(0.100000,-0.100000)"
fill="#000000" stroke="none">
<path d="M1822 4120 c-393 -114 -725 -211 -739 -215 l-26 -6 6 -497 c7 -615
25 -861 83 -1131 99 -463 317 -757 821 -1109 187 -130 573 -372 593 -372 14 0
293 172 475 292 239 159 371 263 516 408 322 322 436 618 489 1270 11 135 27
1140 18 1140 -3 0 -337 97 -743 215 -406 118 -748 215 -759 214 -12 0 -342
-94 -734 -209z m1118 -109 c206 -60 494 -144 640 -186 146 -42 269 -79 274
-83 12 -7 0 -725 -14 -922 -59 -790 -208 -1067 -795 -1484 -149 -106 -466
-306 -485 -306 -28 0 -417 252 -585 379 -468 354 -621 634 -680 1250 -21 213
-37 646 -33 885 l3 199 40 13 c22 7 229 67 460 134 231 67 501 146 600 175 99
30 185 54 190 54 6 1 179 -48 385 -108z"/>
<path d="M2018 3742 l-538 -157 0 -255 c0 -274 12 -505 36 -720 65 -574 217
-793 833 -1202 107 -70 198 -128 202 -128 5 0 9 590 9 1310 0 721 -1 1310 -2
1309 -2 0 -245 -71 -540 -157z"/>
<path d="M6940 3961 c-115 -36 -234 -156 -322 -326 -76 -149 -93 -216 -93
-380 0 -151 11 -194 70 -271 39 -51 137 -94 228 -101 242 -18 445 120 528 360
15 43 34 86 42 95 37 44 21 123 -30 143 -36 14 -247 5 -367 -16 -155 -27 -226
-70 -226 -136 0 -29 7 -43 31 -63 37 -31 58 -32 125 -7 54 21 218 55 235 49
18 -6 -51 -125 -100 -171 -68 -64 -164 -90 -260 -71 -80 16 -112 105 -92 259
19 142 78 266 180 377 93 102 126 107 258 43 57 -29 80 -35 104 -30 33 8 69
55 69 92 0 83 -263 189 -380 154z"/>
<path d="M5129 3935 c-34 -19 -55 -62 -84 -180 -51 -207 -144 -484 -156 -463
-12 22 -56 203 -79 328 -37 197 -58 267 -92 295 -16 14 -41 25 -54 25 -34 0
-78 -24 -97 -53 -23 -35 -53 -142 -77 -269 -12 -62 -41 -183 -66 -268 -56
-193 -74 -276 -74 -346 0 -48 4 -60 29 -85 31 -31 64 -36 104 -18 34 15 54 55
67 134 16 93 89 388 99 398 5 5 13 -19 20 -52 20 -102 99 -374 121 -417 44
-86 138 -85 187 3 12 21 53 129 91 239 38 109 76 215 84 234 l15 35 17 -100
c23 -131 84 -391 101 -431 16 -38 60 -74 92 -74 39 0 80 27 91 60 9 25 3 59
-39 212 -53 196 -76 311 -110 533 -11 77 -30 162 -41 188 -34 79 -88 105 -149
72z"/>
<path d="M8271 3923 l-27 -28 -13 -466 c-14 -507 -13 -515 40 -553 31 -22 81
-20 110 3 23 18 24 26 29 183 l5 163 110 -105 c153 -147 266 -220 342 -220 49
0 88 38 88 88 0 49 -16 68 -80 97 -62 28 -127 79 -255 202 l-100 96 117 121
c201 207 283 310 283 354 0 33 -52 82 -87 82 -44 0 -69 -22 -248 -218 -92
-100 -169 -181 -171 -179 -2 2 0 75 5 162 10 177 5 207 -40 230 -43 23 -77 18
-108 -12z"/>
<path d="M7504 3913 c-66 -13 -91 -106 -40 -149 24 -21 37 -24 114 -24 l87 0
-3 -322 c-2 -178 -5 -324 -7 -326 -2 -2 -29 -5 -61 -8 -86 -8 -101 -12 -124
-36 -41 -44 -15 -119 46 -134 15 -4 83 -2 153 5 69 6 185 11 258 11 122 0 134
2 158 23 15 13 28 37 32 59 5 32 1 41 -25 68 -30 30 -32 30 -136 30 l-106 0 0
294 c0 162 3 302 6 310 5 14 21 15 114 10 l109 -7 30 31 c46 46 37 119 -18
141 -57 23 -502 41 -587 24z"/>
<path d="M6080 3871 c-44 -46 -187 -257 -294 -433 -43 -71 -83 -128 -90 -128
-22 0 -49 -38 -43 -60 3 -13 -12 -57 -39 -115 -58 -122 -63 -153 -33 -189 30
-34 89 -45 123 -23 14 10 47 64 82 136 41 85 64 121 78 125 12 3 68 10 126 16
58 5 122 13 143 16 30 5 37 3 37 -11 0 -32 51 -170 82 -222 36 -59 65 -78 102
-69 70 17 82 73 40 183 -28 74 -82 298 -138 571 -39 186 -44 203 -78 226 -35
25 -58 19 -98 -23z m26 -395 l21 -105 -56 -6 c-31 -3 -73 -8 -94 -11 l-38 -4
26 42 c14 24 44 76 67 116 23 39 45 72 48 72 3 0 15 -47 26 -104z"/>
<path d="M6336 2229 c-57 -45 -19 -139 56 -139 35 0 88 48 88 80 0 12 -13 35
-29 51 -35 35 -77 38 -115 8z"/>
<path d="M7206 2229 c-57 -45 -19 -139 56 -139 35 0 88 48 88 80 0 12 -13 35
-29 51 -35 35 -77 38 -115 8z"/>
<path d="M4737 2201 c-42 -47 -128 -174 -227 -336 -40 -66 -77 -122 -83 -124
-21 -8 -46 -41 -41 -54 3 -8 -13 -55 -36 -106 -22 -51 -40 -101 -40 -112 0
-30 44 -69 79 -69 39 0 66 34 116 143 l40 86 50 5 c28 3 88 7 133 8 l84 3 18
-55 c40 -125 84 -190 126 -190 30 0 74 41 74 69 0 12 -11 49 -25 83 -24 62
-83 309 -124 522 -23 118 -32 140 -61 156 -31 17 -46 12 -83 -29z m40 -416
c-6 -5 -147 -15 -147 -10 0 4 62 108 98 165 16 25 16 24 34 -64 10 -49 17 -90
15 -91z"/>
<path d="M5886 2169 c-24 -19 -26 -27 -26 -90 l0 -70 -45 7 c-62 9 -92 -1
-110 -36 -19 -36 -11 -76 19 -95 11 -7 49 -17 84 -21 l62 -7 2 -111 c2 -61 3
-160 3 -219 0 -102 1 -110 24 -128 33 -27 73 -24 102 7 l24 26 -2 219 -2 219
63 0 c80 0 116 24 116 75 0 53 -38 77 -117 73 l-63 -3 0 30 c-1 119 -65 178
-134 124z"/>
<path d="M5166 1998 l-25 -23 -3 -278 -3 -279 24 -19 c29 -24 72 -24 101 -1
21 17 23 27 24 138 2 105 5 125 28 175 33 72 90 136 130 144 44 10 49 -5 43
-115 -9 -133 16 -318 46 -342 31 -26 75 -23 104 7 28 27 30 43 14 130 -5 33
-13 125 -17 205 -6 113 -12 154 -27 184 -49 97 -157 114 -265 41 -49 -33 -50
-33 -50 -11 0 30 -40 66 -73 66 -14 0 -37 -10 -51 -22z"/>
<path d="M8775 2003 c-151 -20 -228 -119 -176 -227 25 -50 64 -79 171 -126 41
-18 83 -39 93 -48 62 -54 -50 -93 -167 -57 -91 28 -136 13 -136 -44 0 -38 43
-76 109 -95 149 -44 318 7 356 108 39 101 -4 160 -177 247 -66 33 -118 65
-118 73 0 37 156 50 190 16 11 -11 33 -20 51 -20 25 0 32 6 45 35 26 63 11
117 -39 135 -29 10 -139 11 -202 3z"/>
<path d="M6324 1977 l-27 -24 -5 -250 -5 -251 26 -26 c33 -33 76 -34 104 -3
19 21 21 38 26 276 l6 253 -24 24 c-30 30 -66 31 -101 1z"/>
<path d="M6565 1975 c-14 -13 -25 -31 -25 -39 0 -31 201 -501 221 -518 25 -21
68 -23 91 -5 16 12 153 305 210 447 28 68 29 77 16 100 -16 30 -55 45 -92 36
-30 -7 -49 -41 -122 -223 -27 -67 -51 -119 -55 -115 -3 4 -25 59 -49 122 -53
143 -84 206 -105 214 -33 12 -66 5 -90 -19z"/>
<path d="M7194 1977 l-27 -24 -5 -250 -5 -251 26 -26 c33 -33 76 -34 104 -3
19 21 21 38 26 276 l6 253 -24 24 c-30 30 -66 31 -101 1z"/>
<path d="M7710 1985 c-25 -8 -62 -24 -82 -35 -21 -12 -38 -16 -38 -11 0 22
-41 51 -70 51 -17 0 -39 -9 -50 -20 -19 -19 -20 -33 -20 -289 0 -268 0 -270
22 -285 32 -23 71 -20 96 7 21 22 22 33 22 178 l0 155 36 42 c37 44 69 64 115
75 26 7 27 5 31 -45 6 -57 24 -78 69 -78 61 0 90 63 75 165 -11 69 -41 97
-107 101 -30 2 -74 -3 -99 -11z"/>
<path d="M8013 1985 c-56 -39 -56 -407 -1 -506 40 -72 147 -104 268 -80 51 10
63 10 82 -3 30 -21 74 -20 97 3 16 16 19 43 24 287 l6 269 -25 23 c-38 34 -94
29 -117 -12 -7 -13 -14 -92 -17 -216 l-5 -195 -66 -9 c-99 -13 -116 -6 -126
52 -10 62 -10 211 0 289 7 59 6 64 -17 88 -29 28 -71 33 -103 10z"/>
</g>
</svg>
